<svg width="424" height="1174" viewBox="0 0 424 1174" fill="none" xmlns="http://www.w3.org/2000/svg">
<path fill-rule="evenodd" clip-rule="evenodd" d="M1.00844 1.00844C2.35303 -0.336148 4.53304 -0.336148 5.87763 1.00844L16 11.1308L26.1224 1.00844C27.467 -0.336148 29.647 -0.336148 30.9916 1.00844C32.3361 2.35303 32.3361 4.53304 30.9916 5.87763L20.8692 16L30.9916 26.1224C32.3361 27.467 32.3361 29.647 30.9916 30.9916C29.647 32.3361 27.467 32.3361 26.1224 30.9916L16 20.8692L5.87763 30.9916C4.53304 32.3361 2.35303 32.3361 1.00844 30.9916C-0.336148 29.647 -0.336148 27.467 1.00844 26.1224L11.1308 16L1.00844 5.87763C-0.336148 4.53304 -0.336148 2.35303 1.00844 1.00844Z" fill="#635316" fill-opacity="0.04"/>
<path fill-rule="evenodd" clip-rule="evenodd" d="M72 25.2C77.081 25.2 81.2 21.081 81.2 16C81.2 10.919 77.081 6.8 72 6.8C66.919 6.8 62.8 10.919 62.8 16C62.8 21.081 66.919 25.2 72 25.2ZM72 32C80.8366 32 88 24.8366 88 16C88 7.16344 80.8366 0 72 0C63.1634 0 56 7.16344 56 16C56 24.8366 63.1634 32 72 32Z" fill="#635316" fill-opacity="0.08"/>
<path fill-rule="evenodd" clip-rule="evenodd" d="M16 81.2C21.081 81.2 25.2 77.081 25.2 72C25.2 66.919 21.081 62.8 16 62.8C10.919 62.8 6.8 66.919 6.8 72C6.8 77.081 10.919 81.2 16 81.2ZM16 88C24.8366 88 32 80.8366 32 72C32 63.1634 24.8366 56 16 56C7.16344 56 0 63.1634 0 72C0 80.8366 7.16344 88 16 88Z" fill="#635316" fill-opacity="0.04"/>
<path fill-rule="evenodd" clip-rule="evenodd" d="M57.0084 57.0084C58.353 55.6639 60.533 55.6639 61.8776 57.0084L72 67.1308L82.1224 57.0084C83.467 55.6639 85.647 55.6639 86.9916 57.0084C88.3361 58.353 88.3361 60.533 86.9916 61.8776L76.8692 72L86.9916 82.1224C88.3361 83.467 88.3361 85.647 86.9916 86.9916C85.647 88.3361 83.467 88.3361 82.1224 86.9916L72 76.8692L61.8776 86.9916C60.533 88.3361 58.353 88.3361 57.0084 86.9916C55.6639 85.647 55.6639 83.467 57.0084 82.1224L67.1308 72L57.0084 61.8776C55.6639 60.533 55.6639 58.353 57.0084 57.0084Z" fill="#635316" fill-opacity="0.12"/>
<path fill-rule="evenodd" clip-rule="evenodd" d="M128 25.2C133.081 25.2 137.2 21.081 137.2 16C137.2 10.919 133.081 6.8 128 6.8C122.919 6.8 118.8 10.919 118.8 16C118.8 21.081 122.919 25.2 128 25.2ZM128 32C136.837 32 144 24.8366 144 16C144 7.16344 136.837 0 128 0C119.163 0 112 7.16344 112 16C112 24.8366 119.163 32 128 32Z" fill="#635316" fill-opacity="0.04"/>
<path fill-rule="evenodd" clip-rule="evenodd" d="M169.008 1.00844C170.353 -0.336148 172.533 -0.336148 173.878 1.00844L184 11.1308L194.122 1.00844C195.467 -0.336148 197.647 -0.336148 198.992 1.00844C200.336 2.35303 200.336 4.53304 198.992 5.87763L188.869 16L198.992 26.1224C200.336 27.467 200.336 29.647 198.992 30.9916C197.647 32.3361 195.467 32.3361 194.122 30.9916L184 20.8692L173.878 30.9916C172.533 32.3361 170.353 32.3361 169.008 30.9916C167.664 29.647 167.664 27.467 169.008 26.1224L179.131 16L169.008 5.87763C167.664 4.53304 167.664 2.35303 169.008 1.00844Z" fill="#635316" fill-opacity="0.12"/>
<path fill-rule="evenodd" clip-rule="evenodd" d="M128 81.2C133.081 81.2 137.2 77.081 137.2 72C137.2 66.919 133.081 62.8 128 62.8C122.919 62.8 118.8 66.919 118.8 72C118.8 77.081 122.919 81.2 128 81.2ZM128 88C136.837 88 144 80.8366 144 72C144 63.1634 136.837 56 128 56C119.163 56 112 63.1634 112 72C112 80.8366 119.163 88 128 88Z" fill="#635316" fill-opacity="0.04"/>
<path fill-rule="evenodd" clip-rule="evenodd" d="M169.008 57.0084C170.353 55.6639 172.533 55.6639 173.878 57.0084L184 67.1308L194.122 57.0084C195.467 55.6639 197.647 55.6639 198.992 57.0084C200.336 58.353 200.336 60.533 198.992 61.8776L188.869 72L198.992 82.1224C200.336 83.467 200.336 85.647 198.992 86.9916C197.647 88.3361 195.467 88.3361 194.122 86.9916L184 76.8692L173.878 86.9916C172.533 88.3361 170.353 88.3361 169.008 86.9916C167.664 85.647 167.664 83.467 169.008 82.1224L179.131 72L169.008 61.8776C167.664 60.533 167.664 58.353 169.008 57.0084Z" fill="#635316" fill-opacity="0.04"/>
<path fill-rule="evenodd" clip-rule="evenodd" d="M16 137.2C21.081 137.2 25.2 133.081 25.2 128C25.2 122.919 21.081 118.8 16 118.8C10.919 118.8 6.8 122.919 6.8 128C6.8 133.081 10.919 137.2 16 137.2ZM16 144C24.8366 144 32 136.837 32 128C32 119.163 24.8366 112 16 112C7.16344 112 0 119.163 0 128C0 136.837 7.16344 144 16 144Z" fill="#635316" fill-opacity="0.12"/>
<path fill-rule="evenodd" clip-rule="evenodd" d="M57.0084 113.008C58.353 111.664 60.533 111.664 61.8776 113.008L72 123.131L82.1224 113.008C83.467 111.664 85.647 111.664 86.9916 113.008C88.3361 114.353 88.3361 116.533 86.9916 117.878L76.8692 128L86.9916 138.122C88.3361 139.467 88.3361 141.647 86.9916 142.992C85.647 144.336 83.467 144.336 82.1224 142.992L72 132.869L61.8776 142.992C60.533 144.336 58.353 144.336 57.0084 142.992C55.6639 141.647 55.6639 139.467 57.0084 138.122L67.1308 128L57.0084 117.878C55.6639 116.533 55.6639 114.353 57.0084 113.008Z" fill="#635316" fill-opacity="0.12"/>
<path fill-rule="evenodd" clip-rule="evenodd" d="M1.00844 169.008C2.35303 167.664 4.53304 167.664 5.87763 169.008L16 179.131L26.1224 169.008C27.467 167.664 29.647 167.664 30.9916 169.008C32.3361 170.353 32.3361 172.533 30.9916 173.878L20.8692 184L30.9916 194.122C32.3361 195.467 32.3361 197.647 30.9916 198.992C29.647 200.336 27.467 200.336 26.1224 198.992L16 188.869L5.87763 198.992C4.53304 200.336 2.35303 200.336 1.00844 198.992C-0.336148 197.647 -0.336148 195.467 1.00844 194.122L11.1308 184L1.00844 173.878C-0.336148 172.533 -0.336148 170.353 1.00844 169.008Z" fill="#635316" fill-opacity="0.04"/>
<path fill-rule="evenodd" clip-rule="evenodd" d="M72 193.2C77.081 193.2 81.2 189.081 81.2 184C81.2 178.919 77.081 174.8 72 174.8C66.919 174.8 62.8 178.919 62.8 184C62.8 189.081 66.919 193.2 72 193.2ZM72 200C80.8366 200 88 192.837 88 184C88 175.163 80.8366 168 72 168C63.1634 168 56 175.163 56 184C56 192.837 63.1634 200 72 200Z" fill="#635316" fill-opacity="0.04"/>
<path fill-rule="evenodd" clip-rule="evenodd" d="M128 137.2C133.081 137.2 137.2 133.081 137.2 128C137.2 122.919 133.081 118.8 128 118.8C122.919 118.8 118.8 122.919 118.8 128C118.8 133.081 122.919 137.2 128 137.2ZM128 144C136.837 144 144 136.837 144 128C144 119.163 136.837 112 128 112C119.163 112 112 119.163 112 128C112 136.837 119.163 144 128 144Z" fill="#635316" fill-opacity="0.12"/>
<path fill-rule="evenodd" clip-rule="evenodd" d="M169.008 113.008C170.353 111.664 172.533 111.664 173.878 113.008L184 123.131L194.122 113.008C195.467 111.664 197.647 111.664 198.992 113.008C200.336 114.353 200.336 116.533 198.992 117.878L188.869 128L198.992 138.122C200.336 139.467 200.336 141.647 198.992 142.992C197.647 144.336 195.467 144.336 194.122 142.992L184 132.869L173.878 142.992C172.533 144.336 170.353 144.336 169.008 142.992C167.664 141.647 167.664 139.467 169.008 138.122L179.131 128L169.008 117.878C167.664 116.533 167.664 114.353 169.008 113.008Z" fill="#635316" fill-opacity="0.04"/>
<path fill-rule="evenodd" clip-rule="evenodd" d="M113.008 169.008C114.353 167.664 116.533 167.664 117.878 169.008L128 179.131L138.122 169.008C139.467 167.664 141.647 167.664 142.992 169.008C144.336 170.353 144.336 172.533 142.992 173.878L132.869 184L142.992 194.122C144.336 195.467 144.336 197.647 142.992 198.992C141.647 200.336 139.467 200.336 138.122 198.992L128 188.869L117.878 198.992C116.533 200.336 114.353 200.336 113.008 198.992C111.664 197.647 111.664 195.467 113.008 194.122L123.131 184L113.008 173.878C111.664 172.533 111.664 170.353 113.008 169.008Z" fill="#635316" fill-opacity="0.04"/>
<path fill-rule="evenodd" clip-rule="evenodd" d="M184 193.2C189.081 193.2 193.2 189.081 193.2 184C193.2 178.919 189.081 174.8 184 174.8C178.919 174.8 174.8 178.919 174.8 184C174.8 189.081 178.919 193.2 184 193.2ZM184 200C192.837 200 200 192.837 200 184C200 175.163 192.837 168 184 168C175.163 168 168 175.163 168 184C168 192.837 175.163 200 184 200Z" fill="#635316" fill-opacity="0.12"/>
<path fill-rule="evenodd" clip-rule="evenodd" d="M310.992 57.0084C312.336 58.353 312.336 60.533 310.992 61.8776L300.869 72L310.992 82.1224C312.336 83.467 312.336 85.647 310.992 86.9916C309.647 88.3361 307.467 88.3361 306.122 86.9916L296 76.8692L285.878 86.9916C284.533 88.3361 282.353 88.3361 281.008 86.9916C279.664 85.647 279.664 83.467 281.008 82.1224L291.131 72L281.008 61.8776C279.664 60.533 279.664 58.353 281.008 57.0084C282.353 55.6639 284.533 55.6639 285.878 57.0084L296 67.1308L306.122 57.0084C307.467 55.6639 309.647 55.6639 310.992 57.0084Z" fill="#635316" fill-opacity="0.04"/>
<path fill-rule="evenodd" clip-rule="evenodd" d="M254.992 1.00844C256.336 2.35303 256.336 4.53304 254.992 5.87763L244.869 16L254.992 26.1224C256.336 27.467 256.336 29.647 254.992 30.9916C253.647 32.3361 251.467 32.3361 250.122 30.9916L240 20.8692L229.878 30.9916C228.533 32.3361 226.353 32.3361 225.008 30.9916C223.664 29.647 223.664 27.467 225.008 26.1224L235.131 16L225.008 5.87763C223.664 4.53304 223.664 2.35303 225.008 1.00844C226.353 -0.336149 228.533 -0.336149 229.878 1.00844L240 11.1308L250.122 1.00844C251.467 -0.336148 253.647 -0.336148 254.992 1.00844Z" fill="#635316" fill-opacity="0.04"/>
<path fill-rule="evenodd" clip-rule="evenodd" d="M230.8 72C230.8 77.081 234.919 81.2 240 81.2C245.081 81.2 249.2 77.081 249.2 72C249.2 66.919 245.081 62.8 240 62.8C234.919 62.8 230.8 66.919 230.8 72ZM224 72C224 80.8366 231.163 88 240 88C248.837 88 256 80.8366 256 72C256 63.1634 248.837 56 240 56C231.163 56 224 63.1634 224 72Z" fill="#635316" fill-opacity="0.08"/>
<path fill-rule="evenodd" clip-rule="evenodd" d="M310.992 169.008C312.336 170.353 312.336 172.533 310.992 173.878L300.869 184L310.992 194.122C312.336 195.467 312.336 197.647 310.992 198.992C309.647 200.336 307.467 200.336 306.122 198.992L296 188.869L285.878 198.992C284.533 200.336 282.353 200.336 281.008 198.992C279.664 197.647 279.664 195.467 281.008 194.122L291.131 184L281.008 173.878C279.664 172.533 279.664 170.353 281.008 169.008C282.353 167.664 284.533 167.664 285.878 169.008L296 179.131L306.122 169.008C307.467 167.664 309.647 167.664 310.992 169.008Z" fill="#635316" fill-opacity="0.04"/>
<path fill-rule="evenodd" clip-rule="evenodd" d="M254.992 113.008C256.336 114.353 256.336 116.533 254.992 117.878L244.869 128L254.992 138.122C256.336 139.467 256.336 141.647 254.992 142.992C253.647 144.336 251.467 144.336 250.122 142.992L240 132.869L229.878 142.992C228.533 144.336 226.353 144.336 225.008 142.992C223.664 141.647 223.664 139.467 225.008 138.122L235.131 128L225.008 117.878C223.664 116.533 223.664 114.353 225.008 113.008C226.353 111.664 228.533 111.664 229.878 113.008L240 123.131L250.122 113.008C251.467 111.664 253.647 111.664 254.992 113.008Z" fill="#635316" fill-opacity="0.04"/>
<path fill-rule="evenodd" clip-rule="evenodd" d="M230.8 184C230.8 189.081 234.919 193.2 240 193.2C245.081 193.2 249.2 189.081 249.2 184C249.2 178.919 245.081 174.8 240 174.8C234.919 174.8 230.8 178.919 230.8 184ZM224 184C224 192.837 231.163 200 240 200C248.837 200 256 192.837 256 184C256 175.163 248.837 168 240 168C231.163 168 224 175.163 224 184Z" fill="#635316" fill-opacity="0.04"/>
<path fill-rule="evenodd" clip-rule="evenodd" d="M198.992 225.008C200.336 226.353 200.336 228.533 198.992 229.878L188.869 240L198.992 250.122C200.336 251.467 200.336 253.647 198.992 254.992C197.647 256.336 195.467 256.336 194.122 254.992L184 244.869L173.878 254.992C172.533 256.336 170.353 256.336 169.008 254.992C167.664 253.647 167.664 251.467 169.008 250.122L179.131 240L169.008 229.878C167.664 228.533 167.664 226.353 169.008 225.008C170.353 223.664 172.533 223.664 173.878 225.008L184 235.131L194.122 225.008C195.467 223.664 197.647 223.664 198.992 225.008Z" fill="#635316" fill-opacity="0.04"/>
<path fill-rule="evenodd" clip-rule="evenodd" d="M174.8 296C174.8 301.081 178.919 305.2 184 305.2C189.081 305.2 193.2 301.081 193.2 296C193.2 290.919 189.081 286.8 184 286.8C178.919 286.8 174.8 290.919 174.8 296ZM168 296C168 304.837 175.163 312 184 312C192.837 312 200 304.837 200 296C200 287.163 192.837 280 184 280C175.163 280 168 287.163 168 296Z" fill="#635316" fill-opacity="0.08"/>
<path fill-rule="evenodd" clip-rule="evenodd" d="M118.8 240C118.8 245.081 122.919 249.2 128 249.2C133.081 249.2 137.2 245.081 137.2 240C137.2 234.919 133.081 230.8 128 230.8C122.919 230.8 118.8 234.919 118.8 240ZM112 240C112 248.837 119.163 256 128 256C136.837 256 144 248.837 144 240C144 231.163 136.837 224 128 224C119.163 224 112 231.163 112 240Z" fill="#635316" fill-opacity="0.12"/>
<path fill-rule="evenodd" clip-rule="evenodd" d="M142.992 281.008C144.336 282.353 144.336 284.533 142.992 285.878L132.869 296L142.992 306.122C144.336 307.467 144.336 309.647 142.992 310.992C141.647 312.336 139.467 312.336 138.122 310.992L128 300.869L117.878 310.992C116.533 312.336 114.353 312.336 113.008 310.992C111.664 309.647 111.664 307.467 113.008 306.122L123.131 296L113.008 285.878C111.664 284.533 111.664 282.353 113.008 281.008C114.353 279.664 116.533 279.664 117.878 281.008L128 291.131L138.122 281.008C139.467 279.664 141.647 279.664 142.992 281.008Z" fill="#635316" fill-opacity="0.04"/>
<path fill-rule="evenodd" clip-rule="evenodd" d="M174.8 352C174.8 357.081 178.919 361.2 184 361.2C189.081 361.2 193.2 357.081 193.2 352C193.2 346.919 189.081 342.8 184 342.8C178.919 342.8 174.8 346.919 174.8 352ZM168 352C168 360.837 175.163 368 184 368C192.837 368 200 360.837 200 352C200 343.163 192.837 336 184 336C175.163 336 168 343.163 168 352Z" fill="#635316" fill-opacity="0.04"/>
<path fill-rule="evenodd" clip-rule="evenodd" d="M198.992 393.008C200.336 394.353 200.336 396.533 198.992 397.878L188.869 408L198.992 418.122C200.336 419.467 200.336 421.647 198.992 422.992C197.647 424.336 195.467 424.336 194.122 422.992L184 412.869L173.878 422.992C172.533 424.336 170.353 424.336 169.008 422.992C167.664 421.647 167.664 419.467 169.008 418.122L179.131 408L169.008 397.878C167.664 396.533 167.664 394.353 169.008 393.008C170.353 391.664 172.533 391.664 173.878 393.008L184 403.131L194.122 393.008C195.467 391.664 197.647 391.664 198.992 393.008Z" fill="#635316" fill-opacity="0.04"/>
<path fill-rule="evenodd" clip-rule="evenodd" d="M118.8 352C118.8 357.081 122.919 361.2 128 361.2C133.081 361.2 137.2 357.081 137.2 352C137.2 346.919 133.081 342.8 128 342.8C122.919 342.8 118.8 346.919 118.8 352ZM112 352C112 360.837 119.163 368 128 368C136.837 368 144 360.837 144 352C144 343.163 136.837 336 128 336C119.163 336 112 343.163 112 352Z" fill="#635316" fill-opacity="0.12"/>
<path fill-rule="evenodd" clip-rule="evenodd" d="M142.992 393.008C144.336 394.353 144.336 396.533 142.992 397.878L132.869 408L142.992 418.122C144.336 419.467 144.336 421.647 142.992 422.992C141.647 424.336 139.467 424.336 138.122 422.992L128 412.869L117.878 422.992C116.533 424.336 114.353 424.336 113.008 422.992C111.664 421.647 111.664 419.467 113.008 418.122L123.131 408L113.008 397.878C111.664 396.533 111.664 394.353 113.008 393.008C114.353 391.664 116.533 391.664 117.878 393.008L128 403.131L138.122 393.008C139.467 391.664 141.647 391.664 142.992 393.008Z" fill="#635316" fill-opacity="0.04"/>
<path fill-rule="evenodd" clip-rule="evenodd" d="M62.8 240C62.8 245.081 66.919 249.2 72 249.2C77.081 249.2 81.2 245.081 81.2 240C81.2 234.919 77.081 230.8 72 230.8C66.919 230.8 62.8 234.919 62.8 240ZM56 240C56 248.837 63.1634 256 72 256C80.8366 256 88 248.837 88 240C88 231.163 80.8366 224 72 224C63.1634 224 56 231.163 56 240Z" fill="#635316" fill-opacity="0.04"/>
<path fill-rule="evenodd" clip-rule="evenodd" d="M86.9916 281.008C88.3361 282.353 88.3361 284.533 86.9916 285.878L76.8692 296L86.9916 306.122C88.3361 307.467 88.3361 309.647 86.9916 310.992C85.647 312.336 83.467 312.336 82.1224 310.992L72 300.869L61.8776 310.992C60.533 312.336 58.353 312.336 57.0084 310.992C55.6639 309.647 55.6639 307.467 57.0084 306.122L67.1308 296L57.0084 285.878C55.6639 284.533 55.6639 282.353 57.0084 281.008C58.353 279.664 60.533 279.664 61.8776 281.008L72 291.131L82.1224 281.008C83.467 279.664 85.647 279.664 86.9916 281.008Z" fill="#635316" fill-opacity="0.04"/>
<path fill-rule="evenodd" clip-rule="evenodd" d="M30.9916 225.008C32.3361 226.353 32.3361 228.533 30.9916 229.878L20.8692 240L30.9916 250.122C32.3361 251.467 32.3361 253.647 30.9916 254.992C29.647 256.336 27.467 256.336 26.1224 254.992L16 244.869L5.87763 254.992C4.53304 256.336 2.35303 256.336 1.00844 254.992C-0.336149 253.647 -0.336149 251.467 1.00844 250.122L11.1308 240L1.00844 229.878C-0.336148 228.533 -0.336147 226.353 1.00844 225.008C2.35303 223.664 4.53304 223.664 5.87763 225.008L16 235.131L26.1224 225.008C27.467 223.664 29.647 223.664 30.9916 225.008Z" fill="#635316" fill-opacity="0.08"/>
<path fill-rule="evenodd" clip-rule="evenodd" d="M6.8 296C6.8 301.081 10.919 305.2 16 305.2C21.081 305.2 25.2 301.081 25.2 296C25.2 290.919 21.081 286.8 16 286.8C10.919 286.8 6.8 290.919 6.8 296ZM-6.99382e-07 296C-1.08564e-06 304.837 7.16344 312 16 312C24.8366 312 32 304.837 32 296C32 287.163 24.8366 280 16 280C7.16344 280 -3.13124e-07 287.163 -6.99382e-07 296Z" fill="#635316" fill-opacity="0.04"/>
<path fill-rule="evenodd" clip-rule="evenodd" d="M62.8 352C62.8 357.081 66.919 361.2 72 361.2C77.081 361.2 81.2 357.081 81.2 352C81.2 346.919 77.081 342.8 72 342.8C66.919 342.8 62.8 346.919 62.8 352ZM56 352C56 360.837 63.1634 368 72 368C80.8366 368 88 360.837 88 352C88 343.163 80.8366 336 72 336C63.1634 336 56 343.163 56 352Z" fill="#635316" fill-opacity="0.04"/>
<path fill-rule="evenodd" clip-rule="evenodd" d="M86.9916 393.008C88.3361 394.353 88.3361 396.533 86.9916 397.878L76.8692 408L86.9916 418.122C88.3361 419.467 88.3361 421.647 86.9916 422.992C85.647 424.336 83.467 424.336 82.1224 422.992L72 412.869L61.8776 422.992C60.533 424.336 58.353 424.336 57.0084 422.992C55.6639 421.647 55.6639 419.467 57.0084 418.122L67.1308 408L57.0084 397.878C55.6639 396.533 55.6639 394.353 57.0084 393.008C58.353 391.664 60.533 391.664 61.8776 393.008L72 403.131L82.1224 393.008C83.467 391.664 85.647 391.664 86.9916 393.008Z" fill="#635316" fill-opacity="0.04"/>
<path fill-rule="evenodd" clip-rule="evenodd" d="M30.9916 337.008C32.3361 338.353 32.3361 340.533 30.9916 341.878L20.8692 352L30.9916 362.122C32.3361 363.467 32.3361 365.647 30.9916 366.992C29.647 368.336 27.467 368.336 26.1224 366.992L16 356.869L5.87763 366.992C4.53304 368.336 2.35303 368.336 1.00844 366.992C-0.336149 365.647 -0.336149 363.467 1.00844 362.122L11.1308 352L1.00844 341.878C-0.336148 340.533 -0.336147 338.353 1.00844 337.008C2.35303 335.664 4.53304 335.664 5.87763 337.008L16 347.131L26.1224 337.008C27.467 335.664 29.647 335.664 30.9916 337.008Z" fill="#635316" fill-opacity="0.08"/>
<path fill-rule="evenodd" clip-rule="evenodd" d="M6.8 408C6.8 413.081 10.919 417.2 16 417.2C21.081 417.2 25.2 413.081 25.2 408C25.2 402.919 21.081 398.8 16 398.8C10.919 398.8 6.8 402.919 6.8 408ZM-6.99382e-07 408C-1.08564e-06 416.837 7.16344 424 16 424C24.8366 424 32 416.837 32 408C32 399.163 24.8366 392 16 392C7.16344 392 -3.13124e-07 399.163 -6.99382e-07 408Z" fill="#635316" fill-opacity="0.04"/>
<path fill-rule="evenodd" clip-rule="evenodd" d="M225.008 225.008C226.353 223.664 228.533 223.664 229.878 225.008L240 235.131L250.122 225.008C251.467 223.664 253.647 223.664 254.992 225.008C256.336 226.353 256.336 228.533 254.992 229.878L244.869 240L254.992 250.122C256.336 251.467 256.336 253.647 254.992 254.992C253.647 256.336 251.467 256.336 250.122 254.992L240 244.869L229.878 254.992C228.533 256.336 226.353 256.336 225.008 254.992C223.664 253.647 223.664 251.467 225.008 250.122L235.131 240L225.008 229.878C223.664 228.533 223.664 226.353 225.008 225.008Z" fill="#635316" fill-opacity="0.04"/>
<path fill-rule="evenodd" clip-rule="evenodd" d="M240 361.2C245.081 361.2 249.2 357.081 249.2 352C249.2 346.919 245.081 342.8 240 342.8C234.919 342.8 230.8 346.919 230.8 352C230.8 357.081 234.919 361.2 240 361.2ZM240 368C248.837 368 256 360.837 256 352C256 343.163 248.837 336 240 336C231.163 336 224 343.163 224 352C224 360.837 231.163 368 240 368Z" fill="#635316" fill-opacity="0.04"/>
<path fill-rule="evenodd" clip-rule="evenodd" d="M281.008 337.008C282.353 335.664 284.533 335.664 285.878 337.008L296 347.131L306.122 337.008C307.467 335.664 309.647 335.664 310.992 337.008C312.336 338.353 312.336 340.533 310.992 341.878L300.869 352L310.992 362.122C312.336 363.467 312.336 365.647 310.992 366.992C309.647 368.336 307.467 368.336 306.122 366.992L296 356.869L285.878 366.992C284.533 368.336 282.353 368.336 281.008 366.992C279.664 365.647 279.664 363.467 281.008 362.122L291.131 352L281.008 341.878C279.664 340.533 279.664 338.353 281.008 337.008Z" fill="#635316" fill-opacity="0.08"/>
<path fill-rule="evenodd" clip-rule="evenodd" d="M225.008 393.008C226.353 391.664 228.533 391.664 229.878 393.008L240 403.131L250.122 393.008C251.467 391.664 253.647 391.664 254.992 393.008C256.336 394.353 256.336 396.533 254.992 397.878L244.869 408L254.992 418.122C256.336 419.467 256.336 421.647 254.992 422.992C253.647 424.336 251.467 424.336 250.122 422.992L240 412.869L229.878 422.992C228.533 424.336 226.353 424.336 225.008 422.992C223.664 421.647 223.664 419.467 225.008 418.122L235.131 408L225.008 397.878C223.664 396.533 223.664 394.353 225.008 393.008Z" fill="#635316" fill-opacity="0.12"/>
<path fill-rule="evenodd" clip-rule="evenodd" d="M1.00844 449.008C2.35303 447.664 4.53304 447.664 5.87763 449.008L16 459.131L26.1224 449.008C27.467 447.664 29.647 447.664 30.9916 449.008C32.3361 450.353 32.3361 452.533 30.9916 453.878L20.8692 464L30.9916 474.122C32.3361 475.467 32.3361 477.647 30.9916 478.992C29.647 480.336 27.467 480.336 26.1224 478.992L16 468.869L5.87763 478.992C4.53304 480.336 2.35303 480.336 1.00844 478.992C-0.336148 477.647 -0.336148 475.467 1.00844 474.122L11.1308 464L1.00844 453.878C-0.336148 452.533 -0.336148 450.353 1.00844 449.008Z" fill="#635316" fill-opacity="0.04"/>
<path fill-rule="evenodd" clip-rule="evenodd" d="M72 473.2C77.081 473.2 81.2 469.081 81.2 464C81.2 458.919 77.081 454.8 72 454.8C66.919 454.8 62.8 458.919 62.8 464C62.8 469.081 66.919 473.2 72 473.2ZM72 480C80.8366 480 88 472.837 88 464C88 455.163 80.8366 448 72 448C63.1634 448 56 455.163 56 464C56 472.837 63.1634 480 72 480Z" fill="#635316" fill-opacity="0.12"/>
<path fill-rule="evenodd" clip-rule="evenodd" d="M16 529.2C21.081 529.2 25.2 525.081 25.2 520C25.2 514.919 21.081 510.8 16 510.8C10.919 510.8 6.8 514.919 6.8 520C6.8 525.081 10.919 529.2 16 529.2ZM16 536C24.8366 536 32 528.837 32 520C32 511.163 24.8366 504 16 504C7.16344 504 0 511.163 0 520C0 528.837 7.16344 536 16 536Z" fill="#635316" fill-opacity="0.12"/>
<path fill-rule="evenodd" clip-rule="evenodd" d="M57.0084 505.008C58.353 503.664 60.533 503.664 61.8776 505.008L72 515.131L82.1224 505.008C83.467 503.664 85.647 503.664 86.9916 505.008C88.3361 506.353 88.3361 508.533 86.9916 509.878L76.8692 520L86.9916 530.122C88.3361 531.467 88.3361 533.647 86.9916 534.992C85.647 536.336 83.467 536.336 82.1224 534.992L72 524.869L61.8776 534.992C60.533 536.336 58.353 536.336 57.0084 534.992C55.6639 533.647 55.6639 531.467 57.0084 530.122L67.1308 520L57.0084 509.878C55.6639 508.533 55.6639 506.353 57.0084 505.008Z" fill="#635316" fill-opacity="0.04"/>
<path fill-rule="evenodd" clip-rule="evenodd" d="M128 473.2C133.081 473.2 137.2 469.081 137.2 464C137.2 458.919 133.081 454.8 128 454.8C122.919 454.8 118.8 458.919 118.8 464C118.8 469.081 122.919 473.2 128 473.2ZM128 480C136.837 480 144 472.837 144 464C144 455.163 136.837 448 128 448C119.163 448 112 455.163 112 464C112 472.837 119.163 480 128 480Z" fill="#635316" fill-opacity="0.12"/>
<path fill-rule="evenodd" clip-rule="evenodd" d="M169.008 449.008C170.353 447.664 172.533 447.664 173.878 449.008L184 459.131L194.122 449.008C195.467 447.664 197.647 447.664 198.992 449.008C200.336 450.353 200.336 452.533 198.992 453.878L188.869 464L198.992 474.122C200.336 475.467 200.336 477.647 198.992 478.992C197.647 480.336 195.467 480.336 194.122 478.992L184 468.869L173.878 478.992C172.533 480.336 170.353 480.336 169.008 478.992C167.664 477.647 167.664 475.467 169.008 474.122L179.131 464L169.008 453.878C167.664 452.533 167.664 450.353 169.008 449.008Z" fill="#635316" fill-opacity="0.04"/>
<path fill-rule="evenodd" clip-rule="evenodd" d="M128 529.2C133.081 529.2 137.2 525.081 137.2 520C137.2 514.919 133.081 510.8 128 510.8C122.919 510.8 118.8 514.919 118.8 520C118.8 525.081 122.919 529.2 128 529.2ZM128 536C136.837 536 144 528.837 144 520C144 511.163 136.837 504 128 504C119.163 504 112 511.163 112 520C112 528.837 119.163 536 128 536Z" fill="#635316" fill-opacity="0.04"/>
<path fill-rule="evenodd" clip-rule="evenodd" d="M169.008 505.008C170.353 503.664 172.533 503.664 173.878 505.008L184 515.131L194.122 505.008C195.467 503.664 197.647 503.664 198.992 505.008C200.336 506.353 200.336 508.533 198.992 509.878L188.869 520L198.992 530.122C200.336 531.467 200.336 533.647 198.992 534.992C197.647 536.336 195.467 536.336 194.122 534.992L184 524.869L173.878 534.992C172.533 536.336 170.353 536.336 169.008 534.992C167.664 533.647 167.664 531.467 169.008 530.122L179.131 520L169.008 509.878C167.664 508.533 167.664 506.353 169.008 505.008Z" fill="#635316" fill-opacity="0.08"/>
<path fill-rule="evenodd" clip-rule="evenodd" d="M16 585.2C21.081 585.2 25.2 581.081 25.2 576C25.2 570.919 21.081 566.8 16 566.8C10.919 566.8 6.8 570.919 6.8 576C6.8 581.081 10.919 585.2 16 585.2ZM16 592C24.8366 592 32 584.837 32 576C32 567.163 24.8366 560 16 560C7.16344 560 0 567.163 0 576C0 584.837 7.16344 592 16 592Z" fill="#635316" fill-opacity="0.04"/>
<path fill-rule="evenodd" clip-rule="evenodd" d="M57.0084 561.008C58.353 559.664 60.533 559.664 61.8776 561.008L72 571.131L82.1224 561.008C83.467 559.664 85.647 559.664 86.9916 561.008C88.3361 562.353 88.3361 564.533 86.9916 565.878L76.8692 576L86.9916 586.122C88.3361 587.467 88.3361 589.647 86.9916 590.992C85.647 592.336 83.467 592.336 82.1224 590.992L72 580.869L61.8776 590.992C60.533 592.336 58.353 592.336 57.0084 590.992C55.6639 589.647 55.6639 587.467 57.0084 586.122L67.1308 576L57.0084 565.878C55.6639 564.533 55.6639 562.353 57.0084 561.008Z" fill="#635316" fill-opacity="0.12"/>
<path fill-rule="evenodd" clip-rule="evenodd" d="M1.00844 617.008C2.35303 615.664 4.53304 615.664 5.87763 617.008L16 627.131L26.1224 617.008C27.467 615.664 29.647 615.664 30.9916 617.008C32.3361 618.353 32.3361 620.533 30.9916 621.878L20.8692 632L30.9916 642.122C32.3361 643.467 32.3361 645.647 30.9916 646.992C29.647 648.336 27.467 648.336 26.1224 646.992L16 636.869L5.87763 646.992C4.53304 648.336 2.35303 648.336 1.00844 646.992C-0.336148 645.647 -0.336148 643.467 1.00844 642.122L11.1308 632L1.00844 621.878C-0.336148 620.533 -0.336148 618.353 1.00844 617.008Z" fill="#635316" fill-opacity="0.08"/>
<path fill-rule="evenodd" clip-rule="evenodd" d="M72 641.2C77.081 641.2 81.2 637.081 81.2 632C81.2 626.919 77.081 622.8 72 622.8C66.919 622.8 62.8 626.919 62.8 632C62.8 637.081 66.919 641.2 72 641.2ZM72 648C80.8366 648 88 640.837 88 632C88 623.163 80.8366 616 72 616C63.1634 616 56 623.163 56 632C56 640.837 63.1634 648 72 648Z" fill="#635316" fill-opacity="0.04"/>
<path fill-rule="evenodd" clip-rule="evenodd" d="M128 585.2C133.081 585.2 137.2 581.081 137.2 576C137.2 570.919 133.081 566.8 128 566.8C122.919 566.8 118.8 570.919 118.8 576C118.8 581.081 122.919 585.2 128 585.2ZM128 592C136.837 592 144 584.837 144 576C144 567.163 136.837 560 128 560C119.163 560 112 567.163 112 576C112 584.837 119.163 592 128 592Z" fill="#635316" fill-opacity="0.04"/>
<path fill-rule="evenodd" clip-rule="evenodd" d="M169.008 561.008C170.353 559.664 172.533 559.664 173.878 561.008L184 571.131L194.122 561.008C195.467 559.664 197.647 559.664 198.992 561.008C200.336 562.353 200.336 564.533 198.992 565.878L188.869 576L198.992 586.122C200.336 587.467 200.336 589.647 198.992 590.992C197.647 592.336 195.467 592.336 194.122 590.992L184 580.869L173.878 590.992C172.533 592.336 170.353 592.336 169.008 590.992C167.664 589.647 167.664 587.467 169.008 586.122L179.131 576L169.008 565.878C167.664 564.533 167.664 562.353 169.008 561.008Z" fill="#635316" fill-opacity="0.04"/>
<path fill-rule="evenodd" clip-rule="evenodd" d="M113.008 617.008C114.353 615.664 116.533 615.664 117.878 617.008L128 627.131L138.122 617.008C139.467 615.664 141.647 615.664 142.992 617.008C144.336 618.353 144.336 620.533 142.992 621.878L132.869 632L142.992 642.122C144.336 643.467 144.336 645.647 142.992 646.992C141.647 648.336 139.467 648.336 138.122 646.992L128 636.869L117.878 646.992C116.533 648.336 114.353 648.336 113.008 646.992C111.664 645.647 111.664 643.467 113.008 642.122L123.131 632L113.008 621.878C111.664 620.533 111.664 618.353 113.008 617.008Z" fill="#635316" fill-opacity="0.12"/>
<path fill-rule="evenodd" clip-rule="evenodd" d="M184 641.2C189.081 641.2 193.2 637.081 193.2 632C193.2 626.919 189.081 622.8 184 622.8C178.919 622.8 174.8 626.919 174.8 632C174.8 637.081 178.919 641.2 184 641.2ZM184 648C192.837 648 200 640.837 200 632C200 623.163 192.837 616 184 616C175.163 616 168 623.163 168 632C168 640.837 175.163 648 184 648Z" fill="#635316" fill-opacity="0.04"/>
<path fill-rule="evenodd" clip-rule="evenodd" d="M286.8 464C286.8 469.081 290.919 473.2 296 473.2C301.081 473.2 305.2 469.081 305.2 464C305.2 458.919 301.081 454.8 296 454.8C290.919 454.8 286.8 458.919 286.8 464ZM280 464C280 472.837 287.163 480 296 480C304.837 480 312 472.837 312 464C312 455.163 304.837 448 296 448C287.163 448 280 455.163 280 464Z" fill="#635316" fill-opacity="0.04"/>
<path fill-rule="evenodd" clip-rule="evenodd" d="M254.992 449.008C256.336 450.353 256.336 452.533 254.992 453.878L244.869 464L254.992 474.122C256.336 475.467 256.336 477.647 254.992 478.992C253.647 480.336 251.467 480.336 250.122 478.992L240 468.869L229.878 478.992C228.533 480.336 226.353 480.336 225.008 478.992C223.664 477.647 223.664 475.467 225.008 474.122L235.131 464L225.008 453.878C223.664 452.533 223.664 450.353 225.008 449.008C226.353 447.664 228.533 447.664 229.878 449.008L240 459.131L250.122 449.008C251.467 447.664 253.647 447.664 254.992 449.008Z" fill="#635316" fill-opacity="0.12"/>
<path fill-rule="evenodd" clip-rule="evenodd" d="M230.8 520C230.8 525.081 234.919 529.2 240 529.2C245.081 529.2 249.2 525.081 249.2 520C249.2 514.919 245.081 510.8 240 510.8C234.919 510.8 230.8 514.919 230.8 520ZM224 520C224 528.837 231.163 536 240 536C248.837 536 256 528.837 256 520C256 511.163 248.837 504 240 504C231.163 504 224 511.163 224 520Z" fill="#635316" fill-opacity="0.04"/>
<path fill-rule="evenodd" clip-rule="evenodd" d="M286.8 576C286.8 581.081 290.919 585.2 296 585.2C301.081 585.2 305.2 581.081 305.2 576C305.2 570.919 301.081 566.8 296 566.8C290.919 566.8 286.8 570.919 286.8 576ZM280 576C280 584.837 287.163 592 296 592C304.837 592 312 584.837 312 576C312 567.163 304.837 560 296 560C287.163 560 280 567.163 280 576Z" fill="#635316" fill-opacity="0.12"/>
<path fill-rule="evenodd" clip-rule="evenodd" d="M254.992 561.008C256.336 562.353 256.336 564.533 254.992 565.878L244.869 576L254.992 586.122C256.336 587.467 256.336 589.647 254.992 590.992C253.647 592.336 251.467 592.336 250.122 590.992L240 580.869L229.878 590.992C228.533 592.336 226.353 592.336 225.008 590.992C223.664 589.647 223.664 587.467 225.008 586.122L235.131 576L225.008 565.878C223.664 564.533 223.664 562.353 225.008 561.008C226.353 559.664 228.533 559.664 229.878 561.008L240 571.131L250.122 561.008C251.467 559.664 253.647 559.664 254.992 561.008Z" fill="#635316" fill-opacity="0.04"/>
<path fill-rule="evenodd" clip-rule="evenodd" d="M230.8 632C230.8 637.081 234.919 641.2 240 641.2C245.081 641.2 249.2 637.081 249.2 632C249.2 626.919 245.081 622.8 240 622.8C234.919 622.8 230.8 626.919 230.8 632ZM224 632C224 640.837 231.163 648 240 648C248.837 648 256 640.837 256 632C256 623.163 248.837 616 240 616C231.163 616 224 623.163 224 632Z" fill="#635316" fill-opacity="0.08"/>
<path fill-rule="evenodd" clip-rule="evenodd" d="M198.992 673.008C200.336 674.353 200.336 676.533 198.992 677.878L188.869 688L198.992 698.122C200.336 699.467 200.336 701.647 198.992 702.992C197.647 704.336 195.467 704.336 194.122 702.992L184 692.869L173.878 702.992C172.533 704.336 170.353 704.336 169.008 702.992C167.664 701.647 167.664 699.467 169.008 698.122L179.131 688L169.008 677.878C167.664 676.533 167.664 674.353 169.008 673.008C170.353 671.664 172.533 671.664 173.878 673.008L184 683.131L194.122 673.008C195.467 671.664 197.647 671.664 198.992 673.008Z" fill="#635316" fill-opacity="0.04"/>
<path fill-rule="evenodd" clip-rule="evenodd" d="M174.8 744C174.8 749.081 178.919 753.2 184 753.2C189.081 753.2 193.2 749.081 193.2 744C193.2 738.919 189.081 734.8 184 734.8C178.919 734.8 174.8 738.919 174.8 744ZM168 744C168 752.837 175.163 760 184 760C192.837 760 200 752.837 200 744C200 735.163 192.837 728 184 728C175.163 728 168 735.163 168 744Z" fill="#635316" fill-opacity="0.12"/>
<path fill-rule="evenodd" clip-rule="evenodd" d="M118.8 688C118.8 693.081 122.919 697.2 128 697.2C133.081 697.2 137.2 693.081 137.2 688C137.2 682.919 133.081 678.8 128 678.8C122.919 678.8 118.8 682.919 118.8 688ZM112 688C112 696.837 119.163 704 128 704C136.837 704 144 696.837 144 688C144 679.163 136.837 672 128 672C119.163 672 112 679.163 112 688Z" fill="#635316" fill-opacity="0.04"/>
<path fill-rule="evenodd" clip-rule="evenodd" d="M142.992 729.008C144.336 730.353 144.336 732.533 142.992 733.878L132.869 744L142.992 754.122C144.336 755.467 144.336 757.647 142.992 758.992C141.647 760.336 139.467 760.336 138.122 758.992L128 748.869L117.878 758.992C116.533 760.336 114.353 760.336 113.008 758.992C111.664 757.647 111.664 755.467 113.008 754.122L123.131 744L113.008 733.878C111.664 732.533 111.664 730.353 113.008 729.008C114.353 727.664 116.533 727.664 117.878 729.008L128 739.131L138.122 729.008C139.467 727.664 141.647 727.664 142.992 729.008Z" fill="#635316" fill-opacity="0.04"/>
<path fill-rule="evenodd" clip-rule="evenodd" d="M174.8 800C174.8 805.081 178.919 809.2 184 809.2C189.081 809.2 193.2 805.081 193.2 800C193.2 794.919 189.081 790.8 184 790.8C178.919 790.8 174.8 794.919 174.8 800ZM168 800C168 808.837 175.163 816 184 816C192.837 816 200 808.837 200 800C200 791.163 192.837 784 184 784C175.163 784 168 791.163 168 800Z" fill="#635316" fill-opacity="0.04"/>
<path fill-rule="evenodd" clip-rule="evenodd" d="M198.992 841.008C200.336 842.353 200.336 844.533 198.992 845.878L188.869 856L198.992 866.122C200.336 867.467 200.336 869.647 198.992 870.992C197.647 872.336 195.467 872.336 194.122 870.992L184 860.869L173.878 870.992C172.533 872.336 170.353 872.336 169.008 870.992C167.664 869.647 167.664 867.467 169.008 866.122L179.131 856L169.008 845.878C167.664 844.533 167.664 842.353 169.008 841.008C170.353 839.664 172.533 839.664 173.878 841.008L184 851.131L194.122 841.008C195.467 839.664 197.647 839.664 198.992 841.008Z" fill="#635316" fill-opacity="0.04"/>
<path fill-rule="evenodd" clip-rule="evenodd" d="M118.8 800C118.8 805.081 122.919 809.2 128 809.2C133.081 809.2 137.2 805.081 137.2 800C137.2 794.919 133.081 790.8 128 790.8C122.919 790.8 118.8 794.919 118.8 800ZM112 800C112 808.837 119.163 816 128 816C136.837 816 144 808.837 144 800C144 791.163 136.837 784 128 784C119.163 784 112 791.163 112 800Z" fill="#635316" fill-opacity="0.12"/>
<path fill-rule="evenodd" clip-rule="evenodd" d="M142.992 841.008C144.336 842.353 144.336 844.533 142.992 845.878L132.869 856L142.992 866.122C144.336 867.467 144.336 869.647 142.992 870.992C141.647 872.336 139.467 872.336 138.122 870.992L128 860.869L117.878 870.992C116.533 872.336 114.353 872.336 113.008 870.992C111.664 869.647 111.664 867.467 113.008 866.122L123.131 856L113.008 845.878C111.664 844.533 111.664 842.353 113.008 841.008C114.353 839.664 116.533 839.664 117.878 841.008L128 851.131L138.122 841.008C139.467 839.664 141.647 839.664 142.992 841.008Z" fill="#635316" fill-opacity="0.08"/>
<path fill-rule="evenodd" clip-rule="evenodd" d="M62.8 688C62.8 693.081 66.919 697.2 72 697.2C77.081 697.2 81.2 693.081 81.2 688C81.2 682.919 77.081 678.8 72 678.8C66.919 678.8 62.8 682.919 62.8 688ZM56 688C56 696.837 63.1634 704 72 704C80.8366 704 88 696.837 88 688C88 679.163 80.8366 672 72 672C63.1634 672 56 679.163 56 688Z" fill="#635316" fill-opacity="0.04"/>
<path fill-rule="evenodd" clip-rule="evenodd" d="M86.9916 729.008C88.3361 730.353 88.3361 732.533 86.9916 733.878L76.8692 744L86.9916 754.122C88.3361 755.467 88.3361 757.647 86.9916 758.992C85.647 760.336 83.467 760.336 82.1224 758.992L72 748.869L61.8776 758.992C60.533 760.336 58.353 760.336 57.0084 758.992C55.6639 757.647 55.6639 755.467 57.0084 754.122L67.1308 744L57.0084 733.878C55.6639 732.533 55.6639 730.353 57.0084 729.008C58.353 727.664 60.533 727.664 61.8776 729.008L72 739.131L82.1224 729.008C83.467 727.664 85.647 727.664 86.9916 729.008Z" fill="#635316" fill-opacity="0.12"/>
<path fill-rule="evenodd" clip-rule="evenodd" d="M30.9916 673.008C32.3361 674.353 32.3361 676.533 30.9916 677.878L20.8692 688L30.9916 698.122C32.3361 699.467 32.3361 701.647 30.9916 702.992C29.647 704.336 27.467 704.336 26.1224 702.992L16 692.869L5.87763 702.992C4.53304 704.336 2.35303 704.336 1.00844 702.992C-0.336149 701.647 -0.336149 699.467 1.00844 698.122L11.1308 688L1.00844 677.878C-0.336148 676.533 -0.336147 674.353 1.00844 673.008C2.35303 671.664 4.53304 671.664 5.87763 673.008L16 683.131L26.1224 673.008C27.467 671.664 29.647 671.664 30.9916 673.008Z" fill="#635316" fill-opacity="0.04"/>
<path fill-rule="evenodd" clip-rule="evenodd" d="M6.8 744C6.8 749.081 10.919 753.2 16 753.2C21.081 753.2 25.2 749.081 25.2 744C25.2 738.919 21.081 734.8 16 734.8C10.919 734.8 6.8 738.919 6.8 744ZM-6.99382e-07 744C-1.08564e-06 752.837 7.16344 760 16 760C24.8366 760 32 752.837 32 744C32 735.163 24.8366 728 16 728C7.16344 728 -3.13124e-07 735.163 -6.99382e-07 744Z" fill="#635316" fill-opacity="0.04"/>
<path fill-rule="evenodd" clip-rule="evenodd" d="M62.8 800C62.8 805.081 66.919 809.2 72 809.2C77.081 809.2 81.2 805.081 81.2 800C81.2 794.919 77.081 790.8 72 790.8C66.919 790.8 62.8 794.919 62.8 800ZM56 800C56 808.837 63.1634 816 72 816C80.8366 816 88 808.837 88 800C88 791.163 80.8366 784 72 784C63.1634 784 56 791.163 56 800Z" fill="#635316" fill-opacity="0.04"/>
<path fill-rule="evenodd" clip-rule="evenodd" d="M86.9916 841.008C88.3361 842.353 88.3361 844.533 86.9916 845.878L76.8692 856L86.9916 866.122C88.3361 867.467 88.3361 869.647 86.9916 870.992C85.647 872.336 83.467 872.336 82.1224 870.992L72 860.869L61.8776 870.992C60.533 872.336 58.353 872.336 57.0084 870.992C55.6639 869.647 55.6639 867.467 57.0084 866.122L67.1308 856L57.0084 845.878C55.6639 844.533 55.6639 842.353 57.0084 841.008C58.353 839.664 60.533 839.664 61.8776 841.008L72 851.131L82.1224 841.008C83.467 839.664 85.647 839.664 86.9916 841.008Z" fill="#635316" fill-opacity="0.04"/>
<path fill-rule="evenodd" clip-rule="evenodd" d="M30.9916 785.008C32.3361 786.353 32.3361 788.533 30.9916 789.878L20.8692 800L30.9916 810.122C32.3361 811.467 32.3361 813.647 30.9916 814.992C29.647 816.336 27.467 816.336 26.1224 814.992L16 804.869L5.87763 814.992C4.53304 816.336 2.35303 816.336 1.00844 814.992C-0.336149 813.647 -0.336149 811.467 1.00844 810.122L11.1308 800L1.00844 789.878C-0.336148 788.533 -0.336147 786.353 1.00844 785.008C2.35303 783.664 4.53304 783.664 5.87763 785.008L16 795.131L26.1224 785.008C27.467 783.664 29.647 783.664 30.9916 785.008Z" fill="#635316" fill-opacity="0.12"/>
<path fill-rule="evenodd" clip-rule="evenodd" d="M6.8 856C6.8 861.081 10.919 865.2 16 865.2C21.081 865.2 25.2 861.081 25.2 856C25.2 850.919 21.081 846.8 16 846.8C10.919 846.8 6.8 850.919 6.8 856ZM-6.99382e-07 856C-1.08564e-06 864.837 7.16344 872 16 872C24.8366 872 32 864.837 32 856C32 847.163 24.8366 840 16 840C7.16344 840 -3.13124e-07 847.163 -6.99382e-07 856Z" fill="#635316" fill-opacity="0.12"/>
<path fill-rule="evenodd" clip-rule="evenodd" d="M225.008 673.008C226.353 671.664 228.533 671.664 229.878 673.008L240 683.131L250.122 673.008C251.467 671.664 253.647 671.664 254.992 673.008C256.336 674.353 256.336 676.533 254.992 677.878L244.869 688L254.992 698.122C256.336 699.467 256.336 701.647 254.992 702.992C253.647 704.336 251.467 704.336 250.122 702.992L240 692.869L229.878 702.992C228.533 704.336 226.353 704.336 225.008 702.992C223.664 701.647 223.664 699.467 225.008 698.122L235.131 688L225.008 677.878C223.664 676.533 223.664 674.353 225.008 673.008Z" fill="#635316" fill-opacity="0.04"/>
<path fill-rule="evenodd" clip-rule="evenodd" d="M296 697.2C301.081 697.2 305.2 693.081 305.2 688C305.2 682.919 301.081 678.8 296 678.8C290.919 678.8 286.8 682.919 286.8 688C286.8 693.081 290.919 697.2 296 697.2ZM296 704C304.837 704 312 696.837 312 688C312 679.163 304.837 672 296 672C287.163 672 280 679.163 280 688C280 696.837 287.163 704 296 704Z" fill="#635316" fill-opacity="0.12"/>
<path fill-rule="evenodd" clip-rule="evenodd" d="M240 753.2C245.081 753.2 249.2 749.081 249.2 744C249.2 738.919 245.081 734.8 240 734.8C234.919 734.8 230.8 738.919 230.8 744C230.8 749.081 234.919 753.2 240 753.2ZM240 760C248.837 760 256 752.837 256 744C256 735.163 248.837 728 240 728C231.163 728 224 735.163 224 744C224 752.837 231.163 760 240 760Z" fill="#635316" fill-opacity="0.04"/>
<path fill-rule="evenodd" clip-rule="evenodd" d="M352 697.2C357.081 697.2 361.2 693.081 361.2 688C361.2 682.919 357.081 678.8 352 678.8C346.919 678.8 342.8 682.919 342.8 688C342.8 693.081 346.919 697.2 352 697.2ZM352 704C360.837 704 368 696.837 368 688C368 679.163 360.837 672 352 672C343.163 672 336 679.163 336 688C336 696.837 343.163 704 352 704Z" fill="#635316" fill-opacity="0.04"/>
<path fill-rule="evenodd" clip-rule="evenodd" d="M240 809.2C245.081 809.2 249.2 805.081 249.2 800C249.2 794.919 245.081 790.8 240 790.8C234.919 790.8 230.8 794.919 230.8 800C230.8 805.081 234.919 809.2 240 809.2ZM240 816C248.837 816 256 808.837 256 800C256 791.163 248.837 784 240 784C231.163 784 224 791.163 224 800C224 808.837 231.163 816 240 816Z" fill="#635316" fill-opacity="0.04"/>
<path fill-rule="evenodd" clip-rule="evenodd" d="M281.008 785.008C282.353 783.664 284.533 783.664 285.878 785.008L296 795.131L306.122 785.008C307.467 783.664 309.647 783.664 310.992 785.008C312.336 786.353 312.336 788.533 310.992 789.878L300.869 800L310.992 810.122C312.336 811.467 312.336 813.647 310.992 814.992C309.647 816.336 307.467 816.336 306.122 814.992L296 804.869L285.878 814.992C284.533 816.336 282.353 816.336 281.008 814.992C279.664 813.647 279.664 811.467 281.008 810.122L291.131 800L281.008 789.878C279.664 788.533 279.664 786.353 281.008 785.008Z" fill="#635316" fill-opacity="0.04"/>
<path fill-rule="evenodd" clip-rule="evenodd" d="M225.008 841.008C226.353 839.664 228.533 839.664 229.878 841.008L240 851.131L250.122 841.008C251.467 839.664 253.647 839.664 254.992 841.008C256.336 842.353 256.336 844.533 254.992 845.878L244.869 856L254.992 866.122C256.336 867.467 256.336 869.647 254.992 870.992C253.647 872.336 251.467 872.336 250.122 870.992L240 860.869L229.878 870.992C228.533 872.336 226.353 872.336 225.008 870.992C223.664 869.647 223.664 867.467 225.008 866.122L235.131 856L225.008 845.878C223.664 844.533 223.664 842.353 225.008 841.008Z" fill="#635316" fill-opacity="0.12"/>
<path fill-rule="evenodd" clip-rule="evenodd" d="M296 865.2C301.081 865.2 305.2 861.081 305.2 856C305.2 850.919 301.081 846.8 296 846.8C290.919 846.8 286.8 850.919 286.8 856C286.8 861.081 290.919 865.2 296 865.2ZM296 872C304.837 872 312 864.837 312 856C312 847.163 304.837 840 296 840C287.163 840 280 847.163 280 856C280 864.837 287.163 872 296 872Z" fill="#635316" fill-opacity="0.04"/>
<path fill-rule="evenodd" clip-rule="evenodd" d="M337.008 841.008C338.353 839.664 340.533 839.664 341.878 841.008L352 851.131L362.122 841.008C363.467 839.664 365.647 839.664 366.992 841.008C368.336 842.353 368.336 844.533 366.992 845.878L356.869 856L366.992 866.122C368.336 867.467 368.336 869.647 366.992 870.992C365.647 872.336 363.467 872.336 362.122 870.992L352 860.869L341.878 870.992C340.533 872.336 338.353 872.336 337.008 870.992C335.664 869.647 335.664 867.467 337.008 866.122L347.131 856L337.008 845.878C335.664 844.533 335.664 842.353 337.008 841.008Z" fill="#635316" fill-opacity="0.04"/>
<path fill-rule="evenodd" clip-rule="evenodd" d="M1.00844 897.009C2.35303 895.664 4.53304 895.664 5.87763 897.009L16 907.131L26.1224 897.009C27.467 895.664 29.647 895.664 30.9916 897.009C32.3361 898.353 32.3361 900.533 30.9916 901.878L20.8692 912L30.9916 922.122C32.3361 923.467 32.3361 925.647 30.9916 926.992C29.647 928.336 27.467 928.336 26.1224 926.992L16 916.869L5.87763 926.992C4.53304 928.336 2.35303 928.336 1.00844 926.992C-0.336148 925.647 -0.336148 923.467 1.00844 922.122L11.1308 912L1.00844 901.878C-0.336148 900.533 -0.336148 898.353 1.00844 897.009Z" fill="#635316" fill-opacity="0.04"/>
<path fill-rule="evenodd" clip-rule="evenodd" d="M72 921.2C77.081 921.2 81.2 917.081 81.2 912C81.2 906.919 77.081 902.8 72 902.8C66.919 902.8 62.8 906.919 62.8 912C62.8 917.081 66.919 921.2 72 921.2ZM72 928C80.8366 928 88 920.837 88 912C88 903.164 80.8366 896 72 896C63.1634 896 56 903.164 56 912C56 920.837 63.1634 928 72 928Z" fill="#635316" fill-opacity="0.08"/>
<path fill-rule="evenodd" clip-rule="evenodd" d="M16 977.2C21.081 977.2 25.2 973.081 25.2 968C25.2 962.919 21.081 958.8 16 958.8C10.919 958.8 6.8 962.919 6.8 968C6.8 973.081 10.919 977.2 16 977.2ZM16 984C24.8366 984 32 976.837 32 968C32 959.164 24.8366 952 16 952C7.16344 952 0 959.164 0 968C0 976.837 7.16344 984 16 984Z" fill="#635316" fill-opacity="0.04"/>
<path fill-rule="evenodd" clip-rule="evenodd" d="M57.0084 953.009C58.353 951.664 60.533 951.664 61.8776 953.009L72 963.131L82.1224 953.009C83.467 951.664 85.647 951.664 86.9916 953.009C88.3361 954.353 88.3361 956.533 86.9916 957.878L76.8692 968L86.9916 978.122C88.3361 979.467 88.3361 981.647 86.9916 982.992C85.647 984.336 83.467 984.336 82.1224 982.992L72 972.869L61.8776 982.992C60.533 984.336 58.353 984.336 57.0084 982.992C55.6639 981.647 55.6639 979.467 57.0084 978.122L67.1308 968L57.0084 957.878C55.6639 956.533 55.6639 954.353 57.0084 953.009Z" fill="#635316" fill-opacity="0.12"/>
<path fill-rule="evenodd" clip-rule="evenodd" d="M128 921.2C133.081 921.2 137.2 917.081 137.2 912C137.2 906.919 133.081 902.8 128 902.8C122.919 902.8 118.8 906.919 118.8 912C118.8 917.081 122.919 921.2 128 921.2ZM128 928C136.837 928 144 920.837 144 912C144 903.164 136.837 896 128 896C119.163 896 112 903.164 112 912C112 920.837 119.163 928 128 928Z" fill="#635316" fill-opacity="0.04"/>
<path fill-rule="evenodd" clip-rule="evenodd" d="M169.008 897.009C170.353 895.664 172.533 895.664 173.878 897.009L184 907.131L194.122 897.009C195.467 895.664 197.647 895.664 198.992 897.009C200.336 898.353 200.336 900.533 198.992 901.878L188.869 912L198.992 922.122C200.336 923.467 200.336 925.647 198.992 926.992C197.647 928.336 195.467 928.336 194.122 926.992L184 916.869L173.878 926.992C172.533 928.336 170.353 928.336 169.008 926.992C167.664 925.647 167.664 923.467 169.008 922.122L179.131 912L169.008 901.878C167.664 900.533 167.664 898.353 169.008 897.009Z" fill="#635316" fill-opacity="0.12"/>
<path fill-rule="evenodd" clip-rule="evenodd" d="M128 977.2C133.081 977.2 137.2 973.081 137.2 968C137.2 962.919 133.081 958.8 128 958.8C122.919 958.8 118.8 962.919 118.8 968C118.8 973.081 122.919 977.2 128 977.2ZM128 984C136.837 984 144 976.837 144 968C144 959.164 136.837 952 128 952C119.163 952 112 959.164 112 968C112 976.837 119.163 984 128 984Z" fill="#635316" fill-opacity="0.04"/>
<path fill-rule="evenodd" clip-rule="evenodd" d="M169.008 953.009C170.353 951.664 172.533 951.664 173.878 953.009L184 963.131L194.122 953.009C195.467 951.664 197.647 951.664 198.992 953.009C200.336 954.353 200.336 956.533 198.992 957.878L188.869 968L198.992 978.122C200.336 979.467 200.336 981.647 198.992 982.992C197.647 984.336 195.467 984.336 194.122 982.992L184 972.869L173.878 982.992C172.533 984.336 170.353 984.336 169.008 982.992C167.664 981.647 167.664 979.467 169.008 978.122L179.131 968L169.008 957.878C167.664 956.533 167.664 954.353 169.008 953.009Z" fill="#635316" fill-opacity="0.04"/>
<path fill-rule="evenodd" clip-rule="evenodd" d="M16 1033.2C21.081 1033.2 25.2 1029.08 25.2 1024C25.2 1018.92 21.081 1014.8 16 1014.8C10.919 1014.8 6.8 1018.92 6.8 1024C6.8 1029.08 10.919 1033.2 16 1033.2ZM16 1040C24.8366 1040 32 1032.84 32 1024C32 1015.16 24.8366 1008 16 1008C7.16344 1008 0 1015.16 0 1024C0 1032.84 7.16344 1040 16 1040Z" fill="#635316" fill-opacity="0.12"/>
<path fill-rule="evenodd" clip-rule="evenodd" d="M57.0084 1009.01C58.353 1007.66 60.533 1007.66 61.8776 1009.01L72 1019.13L82.1224 1009.01C83.467 1007.66 85.647 1007.66 86.9916 1009.01C88.3361 1010.35 88.3361 1012.53 86.9916 1013.88L76.8692 1024L86.9916 1034.12C88.3361 1035.47 88.3361 1037.65 86.9916 1038.99C85.647 1040.34 83.467 1040.34 82.1224 1038.99L72 1028.87L61.8776 1038.99C60.533 1040.34 58.353 1040.34 57.0084 1038.99C55.6639 1037.65 55.6639 1035.47 57.0084 1034.12L67.1308 1024L57.0084 1013.88C55.6639 1012.53 55.6639 1010.35 57.0084 1009.01Z" fill="#635316" fill-opacity="0.12"/>
<path fill-rule="evenodd" clip-rule="evenodd" d="M1.00844 1065.01C2.35303 1063.66 4.53304 1063.66 5.87763 1065.01L16 1075.13L26.1224 1065.01C27.467 1063.66 29.647 1063.66 30.9916 1065.01C32.3361 1066.35 32.3361 1068.53 30.9916 1069.88L20.8692 1080L30.9916 1090.12C32.3361 1091.47 32.3361 1093.65 30.9916 1094.99C29.647 1096.34 27.467 1096.34 26.1224 1094.99L16 1084.87L5.87763 1094.99C4.53304 1096.34 2.35303 1096.34 1.00844 1094.99C-0.336148 1093.65 -0.336148 1091.47 1.00844 1090.12L11.1308 1080L1.00844 1069.88C-0.336148 1068.53 -0.336148 1066.35 1.00844 1065.01Z" fill="#635316" fill-opacity="0.04"/>
<path fill-rule="evenodd" clip-rule="evenodd" d="M72 1089.2C77.081 1089.2 81.2 1085.08 81.2 1080C81.2 1074.92 77.081 1070.8 72 1070.8C66.919 1070.8 62.8 1074.92 62.8 1080C62.8 1085.08 66.919 1089.2 72 1089.2ZM72 1096C80.8366 1096 88 1088.84 88 1080C88 1071.16 80.8366 1064 72 1064C63.1634 1064 56 1071.16 56 1080C56 1088.84 63.1634 1096 72 1096Z" fill="#635316" fill-opacity="0.04"/>
<path fill-rule="evenodd" clip-rule="evenodd" d="M128 1033.2C133.081 1033.2 137.2 1029.08 137.2 1024C137.2 1018.92 133.081 1014.8 128 1014.8C122.919 1014.8 118.8 1018.92 118.8 1024C118.8 1029.08 122.919 1033.2 128 1033.2ZM128 1040C136.837 1040 144 1032.84 144 1024C144 1015.16 136.837 1008 128 1008C119.163 1008 112 1015.16 112 1024C112 1032.84 119.163 1040 128 1040Z" fill="#635316" fill-opacity="0.12"/>
<path fill-rule="evenodd" clip-rule="evenodd" d="M169.008 1009.01C170.353 1007.66 172.533 1007.66 173.878 1009.01L184 1019.13L194.122 1009.01C195.467 1007.66 197.647 1007.66 198.992 1009.01C200.336 1010.35 200.336 1012.53 198.992 1013.88L188.869 1024L198.992 1034.12C200.336 1035.47 200.336 1037.65 198.992 1038.99C197.647 1040.34 195.467 1040.34 194.122 1038.99L184 1028.87L173.878 1038.99C172.533 1040.34 170.353 1040.34 169.008 1038.99C167.664 1037.65 167.664 1035.47 169.008 1034.12L179.131 1024L169.008 1013.88C167.664 1012.53 167.664 1010.35 169.008 1009.01Z" fill="#635316" fill-opacity="0.04"/>
<path fill-rule="evenodd" clip-rule="evenodd" d="M113.008 1065.01C114.353 1063.66 116.533 1063.66 117.878 1065.01L128 1075.13L138.122 1065.01C139.467 1063.66 141.647 1063.66 142.992 1065.01C144.336 1066.35 144.336 1068.53 142.992 1069.88L132.869 1080L142.992 1090.12C144.336 1091.47 144.336 1093.65 142.992 1094.99C141.647 1096.34 139.467 1096.34 138.122 1094.99L128 1084.87L117.878 1094.99C116.533 1096.34 114.353 1096.34 113.008 1094.99C111.664 1093.65 111.664 1091.47 113.008 1090.12L123.131 1080L113.008 1069.88C111.664 1068.53 111.664 1066.35 113.008 1065.01Z" fill="#635316" fill-opacity="0.04"/>
<path fill-rule="evenodd" clip-rule="evenodd" d="M184 1089.2C189.081 1089.2 193.2 1085.08 193.2 1080C193.2 1074.92 189.081 1070.8 184 1070.8C178.919 1070.8 174.8 1074.92 174.8 1080C174.8 1085.08 178.919 1089.2 184 1089.2ZM184 1096C192.837 1096 200 1088.84 200 1080C200 1071.16 192.837 1064 184 1064C175.163 1064 168 1071.16 168 1080C168 1088.84 175.163 1096 184 1096Z" fill="#635316" fill-opacity="0.12"/>
<path fill-rule="evenodd" clip-rule="evenodd" d="M310.992 953.009C312.336 954.353 312.336 956.533 310.992 957.878L300.869 968L310.992 978.122C312.336 979.467 312.336 981.647 310.992 982.992C309.647 984.336 307.467 984.336 306.122 982.992L296 972.869L285.878 982.992C284.533 984.336 282.353 984.336 281.008 982.992C279.664 981.647 279.664 979.467 281.008 978.122L291.131 968L281.008 957.878C279.664 956.533 279.664 954.353 281.008 953.009C282.353 951.664 284.533 951.664 285.878 953.009L296 963.131L306.122 953.009C307.467 951.664 309.647 951.664 310.992 953.009Z" fill="#635316" fill-opacity="0.04"/>
<path fill-rule="evenodd" clip-rule="evenodd" d="M254.992 897.009C256.336 898.353 256.336 900.533 254.992 901.878L244.869 912L254.992 922.122C256.336 923.467 256.336 925.647 254.992 926.992C253.647 928.336 251.467 928.336 250.122 926.992L240 916.869L229.878 926.992C228.533 928.336 226.353 928.336 225.008 926.992C223.664 925.647 223.664 923.467 225.008 922.122L235.131 912L225.008 901.878C223.664 900.533 223.664 898.353 225.008 897.009C226.353 895.664 228.533 895.664 229.878 897.009L240 907.131L250.122 897.009C251.467 895.664 253.647 895.664 254.992 897.009Z" fill="#635316" fill-opacity="0.04"/>
<path fill-rule="evenodd" clip-rule="evenodd" d="M230.8 968C230.8 973.081 234.919 977.2 240 977.2C245.081 977.2 249.2 973.081 249.2 968C249.2 962.919 245.081 958.8 240 958.8C234.919 958.8 230.8 962.919 230.8 968ZM224 968C224 976.837 231.163 984 240 984C248.837 984 256 976.837 256 968C256 959.164 248.837 952 240 952C231.163 952 224 959.164 224 968Z" fill="#635316" fill-opacity="0.08"/>
<path fill-rule="evenodd" clip-rule="evenodd" d="M310.992 1065.01C312.336 1066.35 312.336 1068.53 310.992 1069.88L300.869 1080L310.992 1090.12C312.336 1091.47 312.336 1093.65 310.992 1094.99C309.647 1096.34 307.467 1096.34 306.122 1094.99L296 1084.87L285.878 1094.99C284.533 1096.34 282.353 1096.34 281.008 1094.99C279.664 1093.65 279.664 1091.47 281.008 1090.12L291.131 1080L281.008 1069.88C279.664 1068.53 279.664 1066.35 281.008 1065.01C282.353 1063.66 284.533 1063.66 285.878 1065.01L296 1075.13L306.122 1065.01C307.467 1063.66 309.647 1063.66 310.992 1065.01Z" fill="#635316" fill-opacity="0.04"/>
<path fill-rule="evenodd" clip-rule="evenodd" d="M254.992 1009.01C256.336 1010.35 256.336 1012.53 254.992 1013.88L244.869 1024L254.992 1034.12C256.336 1035.47 256.336 1037.65 254.992 1038.99C253.647 1040.34 251.467 1040.34 250.122 1038.99L240 1028.87L229.878 1038.99C228.533 1040.34 226.353 1040.34 225.008 1038.99C223.664 1037.65 223.664 1035.47 225.008 1034.12L235.131 1024L225.008 1013.88C223.664 1012.53 223.664 1010.35 225.008 1009.01C226.353 1007.66 228.533 1007.66 229.878 1009.01L240 1019.13L250.122 1009.01C251.467 1007.66 253.647 1007.66 254.992 1009.01Z" fill="#635316" fill-opacity="0.04"/>
<path fill-rule="evenodd" clip-rule="evenodd" d="M230.8 1080C230.8 1085.08 234.919 1089.2 240 1089.2C245.081 1089.2 249.2 1085.08 249.2 1080C249.2 1074.92 245.081 1070.8 240 1070.8C234.919 1070.8 230.8 1074.92 230.8 1080ZM224 1080C224 1088.84 231.163 1096 240 1096C248.837 1096 256 1088.84 256 1080C256 1071.16 248.837 1064 240 1064C231.163 1064 224 1071.16 224 1080Z" fill="#635316" fill-opacity="0.04"/>
<path fill-rule="evenodd" clip-rule="evenodd" d="M198.992 1121.01C200.336 1122.35 200.336 1124.53 198.992 1125.88L188.869 1136L198.992 1146.12C200.336 1147.47 200.336 1149.65 198.992 1150.99C197.647 1152.34 195.467 1152.34 194.122 1150.99L184 1140.87L173.878 1150.99C172.533 1152.34 170.353 1152.34 169.008 1150.99C167.664 1149.65 167.664 1147.47 169.008 1146.12L179.131 1136L169.008 1125.88C167.664 1124.53 167.664 1122.35 169.008 1121.01C170.353 1119.66 172.533 1119.66 173.878 1121.01L184 1131.13L194.122 1121.01C195.467 1119.66 197.647 1119.66 198.992 1121.01Z" fill="#635316" fill-opacity="0.04"/>
<path fill-rule="evenodd" clip-rule="evenodd" d="M118.8 1136C118.8 1141.08 122.919 1145.2 128 1145.2C133.081 1145.2 137.2 1141.08 137.2 1136C137.2 1130.92 133.081 1126.8 128 1126.8C122.919 1126.8 118.8 1130.92 118.8 1136ZM112 1136C112 1144.84 119.163 1152 128 1152C136.837 1152 144 1144.84 144 1136C144 1127.16 136.837 1120 128 1120C119.163 1120 112 1127.16 112 1136Z" fill="#635316" fill-opacity="0.12"/>
<path fill-rule="evenodd" clip-rule="evenodd" d="M62.8 1136C62.8 1141.08 66.919 1145.2 72 1145.2C77.081 1145.2 81.2 1141.08 81.2 1136C81.2 1130.92 77.081 1126.8 72 1126.8C66.919 1126.8 62.8 1130.92 62.8 1136ZM56 1136C56 1144.84 63.1634 1152 72 1152C80.8366 1152 88 1144.84 88 1136C88 1127.16 80.8366 1120 72 1120C63.1634 1120 56 1127.16 56 1136Z" fill="#635316" fill-opacity="0.04"/>
<path fill-rule="evenodd" clip-rule="evenodd" d="M30.9916 1121.01C32.3361 1122.35 32.3361 1124.53 30.9916 1125.88L20.8692 1136L30.9916 1146.12C32.3361 1147.47 32.3361 1149.65 30.9916 1150.99C29.647 1152.34 27.467 1152.34 26.1224 1150.99L16 1140.87L5.87763 1150.99C4.53304 1152.34 2.35303 1152.34 1.00844 1150.99C-0.336149 1149.65 -0.336149 1147.47 1.00844 1146.12L11.1308 1136L1.00844 1125.88C-0.336148 1124.53 -0.336147 1122.35 1.00844 1121.01C2.35303 1119.66 4.53304 1119.66 5.87763 1121.01L16 1131.13L26.1224 1121.01C27.467 1119.66 29.647 1119.66 30.9916 1121.01Z" fill="#635316" fill-opacity="0.08"/>
<path fill-rule="evenodd" clip-rule="evenodd" d="M225.008 1121.01C226.353 1119.66 228.533 1119.66 229.878 1121.01L240 1131.13L250.122 1121.01C251.467 1119.66 253.647 1119.66 254.992 1121.01C256.336 1122.35 256.336 1124.53 254.992 1125.88L244.869 1136L254.992 1146.12C256.336 1147.47 256.336 1149.65 254.992 1150.99C253.647 1152.34 251.467 1152.34 250.122 1150.99L240 1140.87L229.878 1150.99C228.533 1152.34 226.353 1152.34 225.008 1150.99C223.664 1149.65 223.664 1147.47 225.008 1146.12L235.131 1136L225.008 1125.88C223.664 1124.53 223.664 1122.35 225.008 1121.01Z" fill="#635316" fill-opacity="0.04"/>
</svg>
