<svg width="200" height="200" viewBox="0 0 200 200" fill="none" xmlns="http://www.w3.org/2000/svg">
<path fill-rule="evenodd" clip-rule="evenodd" d="M1.00844 1.00844C2.35303 -0.336148 4.53304 -0.336148 5.87763 1.00844L16 11.1308L26.1224 1.00844C27.467 -0.336148 29.647 -0.336148 30.9916 1.00844C32.3361 2.35303 32.3361 4.53304 30.9916 5.87763L20.8692 16L30.9916 26.1224C32.3361 27.467 32.3361 29.647 30.9916 30.9916C29.647 32.3361 27.467 32.3361 26.1224 30.9916L16 20.8692L5.87763 30.9916C4.53304 32.3361 2.35303 32.3361 1.00844 30.9916C-0.336148 29.647 -0.336148 27.467 1.00844 26.1224L11.1308 16L1.00844 5.87763C-0.336148 4.53304 -0.336148 2.35303 1.00844 1.00844Z" fill="#635316" fill-opacity="0.04"/>
<path fill-rule="evenodd" clip-rule="evenodd" d="M72 25.2C77.081 25.2 81.2 21.081 81.2 16C81.2 10.919 77.081 6.8 72 6.8C66.919 6.8 62.8 10.919 62.8 16C62.8 21.081 66.919 25.2 72 25.2ZM72 32C80.8366 32 88 24.8366 88 16C88 7.16344 80.8366 0 72 0C63.1634 0 56 7.16344 56 16C56 24.8366 63.1634 32 72 32Z" fill="#635316" fill-opacity="0.08"/>
<path fill-rule="evenodd" clip-rule="evenodd" d="M16 81.2C21.081 81.2 25.2 77.081 25.2 72C25.2 66.919 21.081 62.8 16 62.8C10.919 62.8 6.8 66.919 6.8 72C6.8 77.081 10.919 81.2 16 81.2ZM16 88C24.8366 88 32 80.8366 32 72C32 63.1634 24.8366 56 16 56C7.16344 56 0 63.1634 0 72C0 80.8366 7.16344 88 16 88Z" fill="#635316" fill-opacity="0.04"/>
<path fill-rule="evenodd" clip-rule="evenodd" d="M57.0084 57.0084C58.353 55.6639 60.533 55.6639 61.8776 57.0084L72 67.1308L82.1224 57.0084C83.467 55.6639 85.647 55.6639 86.9916 57.0084C88.3361 58.353 88.3361 60.533 86.9916 61.8776L76.8692 72L86.9916 82.1224C88.3361 83.467 88.3361 85.647 86.9916 86.9916C85.647 88.3361 83.467 88.3361 82.1224 86.9916L72 76.8692L61.8776 86.9916C60.533 88.3361 58.353 88.3361 57.0084 86.9916C55.6639 85.647 55.6639 83.467 57.0084 82.1224L67.1308 72L57.0084 61.8776C55.6639 60.533 55.6639 58.353 57.0084 57.0084Z" fill="#635316" fill-opacity="0.12"/>
<path fill-rule="evenodd" clip-rule="evenodd" d="M128 25.2C133.081 25.2 137.2 21.081 137.2 16C137.2 10.919 133.081 6.8 128 6.8C122.919 6.8 118.8 10.919 118.8 16C118.8 21.081 122.919 25.2 128 25.2ZM128 32C136.837 32 144 24.8366 144 16C144 7.16344 136.837 0 128 0C119.163 0 112 7.16344 112 16C112 24.8366 119.163 32 128 32Z" fill="#635316" fill-opacity="0.04"/>
<path fill-rule="evenodd" clip-rule="evenodd" d="M169.008 1.00844C170.353 -0.336148 172.533 -0.336148 173.878 1.00844L184 11.1308L194.122 1.00844C195.467 -0.336148 197.647 -0.336148 198.992 1.00844C200.336 2.35303 200.336 4.53304 198.992 5.87763L188.869 16L198.992 26.1224C200.336 27.467 200.336 29.647 198.992 30.9916C197.647 32.3361 195.467 32.3361 194.122 30.9916L184 20.8692L173.878 30.9916C172.533 32.3361 170.353 32.3361 169.008 30.9916C167.664 29.647 167.664 27.467 169.008 26.1224L179.131 16L169.008 5.87763C167.664 4.53304 167.664 2.35303 169.008 1.00844Z" fill="#635316" fill-opacity="0.12"/>
<path fill-rule="evenodd" clip-rule="evenodd" d="M128 81.2C133.081 81.2 137.2 77.081 137.2 72C137.2 66.919 133.081 62.8 128 62.8C122.919 62.8 118.8 66.919 118.8 72C118.8 77.081 122.919 81.2 128 81.2ZM128 88C136.837 88 144 80.8366 144 72C144 63.1634 136.837 56 128 56C119.163 56 112 63.1634 112 72C112 80.8366 119.163 88 128 88Z" fill="#635316" fill-opacity="0.04"/>
<path fill-rule="evenodd" clip-rule="evenodd" d="M169.008 57.0084C170.353 55.6639 172.533 55.6639 173.878 57.0084L184 67.1308L194.122 57.0084C195.467 55.6639 197.647 55.6639 198.992 57.0084C200.336 58.353 200.336 60.533 198.992 61.8776L188.869 72L198.992 82.1224C200.336 83.467 200.336 85.647 198.992 86.9916C197.647 88.3361 195.467 88.3361 194.122 86.9916L184 76.8692L173.878 86.9916C172.533 88.3361 170.353 88.3361 169.008 86.9916C167.664 85.647 167.664 83.467 169.008 82.1224L179.131 72L169.008 61.8776C167.664 60.533 167.664 58.353 169.008 57.0084Z" fill="#635316" fill-opacity="0.04"/>
<path fill-rule="evenodd" clip-rule="evenodd" d="M16 137.2C21.081 137.2 25.2 133.081 25.2 128C25.2 122.919 21.081 118.8 16 118.8C10.919 118.8 6.8 122.919 6.8 128C6.8 133.081 10.919 137.2 16 137.2ZM16 144C24.8366 144 32 136.837 32 128C32 119.163 24.8366 112 16 112C7.16344 112 0 119.163 0 128C0 136.837 7.16344 144 16 144Z" fill="#635316" fill-opacity="0.12"/>
<path fill-rule="evenodd" clip-rule="evenodd" d="M57.0084 113.008C58.353 111.664 60.533 111.664 61.8776 113.008L72 123.131L82.1224 113.008C83.467 111.664 85.647 111.664 86.9916 113.008C88.3361 114.353 88.3361 116.533 86.9916 117.878L76.8692 128L86.9916 138.122C88.3361 139.467 88.3361 141.647 86.9916 142.992C85.647 144.336 83.467 144.336 82.1224 142.992L72 132.869L61.8776 142.992C60.533 144.336 58.353 144.336 57.0084 142.992C55.6639 141.647 55.6639 139.467 57.0084 138.122L67.1308 128L57.0084 117.878C55.6639 116.533 55.6639 114.353 57.0084 113.008Z" fill="#635316" fill-opacity="0.12"/>
<path fill-rule="evenodd" clip-rule="evenodd" d="M1.00844 169.008C2.35303 167.664 4.53304 167.664 5.87763 169.008L16 179.131L26.1224 169.008C27.467 167.664 29.647 167.664 30.9916 169.008C32.3361 170.353 32.3361 172.533 30.9916 173.878L20.8692 184L30.9916 194.122C32.3361 195.467 32.3361 197.647 30.9916 198.992C29.647 200.336 27.467 200.336 26.1224 198.992L16 188.869L5.87763 198.992C4.53304 200.336 2.35303 200.336 1.00844 198.992C-0.336148 197.647 -0.336148 195.467 1.00844 194.122L11.1308 184L1.00844 173.878C-0.336148 172.533 -0.336148 170.353 1.00844 169.008Z" fill="#635316" fill-opacity="0.04"/>
<path fill-rule="evenodd" clip-rule="evenodd" d="M72 193.2C77.081 193.2 81.2 189.081 81.2 184C81.2 178.919 77.081 174.8 72 174.8C66.919 174.8 62.8 178.919 62.8 184C62.8 189.081 66.919 193.2 72 193.2ZM72 200C80.8366 200 88 192.837 88 184C88 175.163 80.8366 168 72 168C63.1634 168 56 175.163 56 184C56 192.837 63.1634 200 72 200Z" fill="#635316" fill-opacity="0.04"/>
<path fill-rule="evenodd" clip-rule="evenodd" d="M128 137.2C133.081 137.2 137.2 133.081 137.2 128C137.2 122.919 133.081 118.8 128 118.8C122.919 118.8 118.8 122.919 118.8 128C118.8 133.081 122.919 137.2 128 137.2ZM128 144C136.837 144 144 136.837 144 128C144 119.163 136.837 112 128 112C119.163 112 112 119.163 112 128C112 136.837 119.163 144 128 144Z" fill="#635316" fill-opacity="0.12"/>
<path fill-rule="evenodd" clip-rule="evenodd" d="M169.008 113.008C170.353 111.664 172.533 111.664 173.878 113.008L184 123.131L194.122 113.008C195.467 111.664 197.647 111.664 198.992 113.008C200.336 114.353 200.336 116.533 198.992 117.878L188.869 128L198.992 138.122C200.336 139.467 200.336 141.647 198.992 142.992C197.647 144.336 195.467 144.336 194.122 142.992L184 132.869L173.878 142.992C172.533 144.336 170.353 144.336 169.008 142.992C167.664 141.647 167.664 139.467 169.008 138.122L179.131 128L169.008 117.878C167.664 116.533 167.664 114.353 169.008 113.008Z" fill="#635316" fill-opacity="0.04"/>
<path fill-rule="evenodd" clip-rule="evenodd" d="M113.008 169.008C114.353 167.664 116.533 167.664 117.878 169.008L128 179.131L138.122 169.008C139.467 167.664 141.647 167.664 142.992 169.008C144.336 170.353 144.336 172.533 142.992 173.878L132.869 184L142.992 194.122C144.336 195.467 144.336 197.647 142.992 198.992C141.647 200.336 139.467 200.336 138.122 198.992L128 188.869L117.878 198.992C116.533 200.336 114.353 200.336 113.008 198.992C111.664 197.647 111.664 195.467 113.008 194.122L123.131 184L113.008 173.878C111.664 172.533 111.664 170.353 113.008 169.008Z" fill="#635316" fill-opacity="0.04"/>
<path fill-rule="evenodd" clip-rule="evenodd" d="M184 193.2C189.081 193.2 193.2 189.081 193.2 184C193.2 178.919 189.081 174.8 184 174.8C178.919 174.8 174.8 178.919 174.8 184C174.8 189.081 178.919 193.2 184 193.2ZM184 200C192.837 200 200 192.837 200 184C200 175.163 192.837 168 184 168C175.163 168 168 175.163 168 184C168 192.837 175.163 200 184 200Z" fill="#635316" fill-opacity="0.12"/>
</svg>
