<svg width="200" height="200" viewBox="0 0 200 200" fill="none" xmlns="http://www.w3.org/2000/svg">
<path fill-rule="evenodd" clip-rule="evenodd" d="M86.9916 57.0084C88.3361 58.353 88.3361 60.533 86.9916 61.8776L76.8692 72L86.9916 82.1224C88.3361 83.467 88.3361 85.647 86.9916 86.9916C85.647 88.3361 83.467 88.3361 82.1224 86.9916L72 76.8692L61.8776 86.9916C60.533 88.3361 58.353 88.3361 57.0084 86.9916C55.6639 85.647 55.6639 83.467 57.0084 82.1224L67.1308 72L57.0084 61.8776C55.6639 60.533 55.6639 58.353 57.0084 57.0084C58.353 55.6639 60.533 55.6639 61.8776 57.0084L72 67.1308L82.1224 57.0084C83.467 55.6639 85.647 55.6639 86.9916 57.0084Z" fill="#635316" fill-opacity="0.04"/>
<path fill-rule="evenodd" clip-rule="evenodd" d="M30.9916 1.00844C32.3361 2.35303 32.3361 4.53304 30.9916 5.87763L20.8692 16L30.9916 26.1224C32.3361 27.467 32.3361 29.647 30.9916 30.9916C29.647 32.3361 27.467 32.3361 26.1224 30.9916L16 20.8692L5.87763 30.9916C4.53304 32.3361 2.35303 32.3361 1.00844 30.9916C-0.336149 29.647 -0.336149 27.467 1.00844 26.1224L11.1308 16L1.00844 5.87763C-0.336148 4.53304 -0.336147 2.35303 1.00844 1.00844C2.35303 -0.336149 4.53304 -0.336149 5.87763 1.00844L16 11.1308L26.1224 1.00844C27.467 -0.336148 29.647 -0.336148 30.9916 1.00844Z" fill="#635316" fill-opacity="0.04"/>
<path fill-rule="evenodd" clip-rule="evenodd" d="M6.8 72C6.8 77.081 10.919 81.2 16 81.2C21.081 81.2 25.2 77.081 25.2 72C25.2 66.919 21.081 62.8 16 62.8C10.919 62.8 6.8 66.919 6.8 72ZM-6.99382e-07 72C-1.08564e-06 80.8366 7.16344 88 16 88C24.8366 88 32 80.8366 32 72C32 63.1634 24.8366 56 16 56C7.16344 56 -3.13124e-07 63.1634 -6.99382e-07 72Z" fill="#635316" fill-opacity="0.08"/>
<path fill-rule="evenodd" clip-rule="evenodd" d="M86.9916 169.008C88.3361 170.353 88.3361 172.533 86.9916 173.878L76.8692 184L86.9916 194.122C88.3361 195.467 88.3361 197.647 86.9916 198.992C85.647 200.336 83.467 200.336 82.1224 198.992L72 188.869L61.8776 198.992C60.533 200.336 58.353 200.336 57.0084 198.992C55.6639 197.647 55.6639 195.467 57.0084 194.122L67.1308 184L57.0084 173.878C55.6639 172.533 55.6639 170.353 57.0084 169.008C58.353 167.664 60.533 167.664 61.8776 169.008L72 179.131L82.1224 169.008C83.467 167.664 85.647 167.664 86.9916 169.008Z" fill="#635316" fill-opacity="0.04"/>
<path fill-rule="evenodd" clip-rule="evenodd" d="M30.9916 113.008C32.3361 114.353 32.3361 116.533 30.9916 117.878L20.8692 128L30.9916 138.122C32.3361 139.467 32.3361 141.647 30.9916 142.992C29.647 144.336 27.467 144.336 26.1224 142.992L16 132.869L5.87763 142.992C4.53304 144.336 2.35303 144.336 1.00844 142.992C-0.336149 141.647 -0.336149 139.467 1.00844 138.122L11.1308 128L1.00844 117.878C-0.336148 116.533 -0.336147 114.353 1.00844 113.008C2.35303 111.664 4.53304 111.664 5.87763 113.008L16 123.131L26.1224 113.008C27.467 111.664 29.647 111.664 30.9916 113.008Z" fill="#635316" fill-opacity="0.04"/>
<path fill-rule="evenodd" clip-rule="evenodd" d="M6.8 184C6.8 189.081 10.919 193.2 16 193.2C21.081 193.2 25.2 189.081 25.2 184C25.2 178.919 21.081 174.8 16 174.8C10.919 174.8 6.8 178.919 6.8 184ZM-6.99382e-07 184C-1.08564e-06 192.837 7.16344 200 16 200C24.8366 200 32 192.837 32 184C32 175.163 24.8366 168 16 168C7.16344 168 -3.13124e-07 175.163 -6.99382e-07 184Z" fill="#635316" fill-opacity="0.04"/>
</svg>
